<?xml version="1.0" encoding="UTF-8"?>
<svg version="1.1" xmlns="http://www.w3.org/2000/svg" width="128" height="128">
<path d="M0 0 C42.24 0 84.48 0 128 0 C128 42.24 128 84.48 128 128 C85.76 128 43.52 128 0 128 C0 85.76 0 43.52 0 0 Z " fill="#F4F5F7" transform="translate(0,0)"/>
<path d="M0 0 C7.3973076 -0.04629419 14.79458407 -0.08185426 22.19200706 -0.10362434 C25.62675459 -0.1140717 29.06140317 -0.12824805 32.49609375 -0.15087891 C36.44269638 -0.17672063 40.38925863 -0.18646493 44.3359375 -0.1953125 C45.57242035 -0.20563507 46.8089032 -0.21595764 48.08285522 -0.22659302 C49.22388702 -0.22674408 50.36491882 -0.22689514 51.54052734 -0.22705078 C52.548685 -0.231492 53.55684265 -0.23593323 54.59555054 -0.24050903 C57 0 57 0 59 2 C59.24050903 4.3664856 59.24050903 4.3664856 59.22705078 7.36767578 C59.22689972 8.48868683 59.22674866 9.60969788 59.22659302 10.76467896 C59.21627045 11.97928802 59.20594788 13.19389709 59.1953125 14.4453125 C59.1924826 15.68546112 59.18965271 16.92560974 59.18673706 18.20333862 C59.17742174 21.50124633 59.1594489 24.79895972 59.1373291 28.09680176 C59.11687474 31.4616457 59.10773623 34.82651807 59.09765625 38.19140625 C59.07556519 44.79434723 59.04206483 51.39715771 59 58 C52.03243808 58.09178296 48.41307925 57.65256398 43 53 C36.92567875 46.33437314 34.6644449 40.74946754 34.875 31.6875 C34.88402344 30.94693359 34.89304688 30.20636719 34.90234375 29.44335938 C34.92575787 27.62876533 34.96162385 25.81433929 35 24 C33.7934375 24.05800781 32.586875 24.11601563 31.34375 24.17578125 C15.67911177 24.71047193 15.67911177 24.71047193 10.53515625 20.55078125 C9.77525391 19.78314453 9.77525391 19.78314453 9 19 C8.44183594 18.45730469 7.88367188 17.91460937 7.30859375 17.35546875 C2.51427048 12.23767307 -0.21944155 7.14404153 0 0 Z " fill="#1B74EE" transform="translate(7,60)"/>
<path d="M0 0 C7.3973076 -0.04629419 14.79458407 -0.08185426 22.19200706 -0.10362434 C25.62675459 -0.1140717 29.06140317 -0.12824805 32.49609375 -0.15087891 C36.44269638 -0.17672063 40.38925863 -0.18646493 44.3359375 -0.1953125 C45.57242035 -0.20563507 46.8089032 -0.21595764 48.08285522 -0.22659302 C49.22388702 -0.22674408 50.36491882 -0.22689514 51.54052734 -0.22705078 C52.548685 -0.231492 53.55684265 -0.23593323 54.59555054 -0.24050903 C57 0 57 0 59 2 C59.24050903 4.3664856 59.24050903 4.3664856 59.22705078 7.36767578 C59.22689972 8.48868683 59.22674866 9.60969788 59.22659302 10.76467896 C59.21627045 11.97928802 59.20594788 13.19389709 59.1953125 14.4453125 C59.1924826 15.68546112 59.18965271 16.92560974 59.18673706 18.20333862 C59.17742174 21.50124633 59.1594489 24.79895972 59.1373291 28.09680176 C59.11687474 31.4616457 59.10773623 34.82651807 59.09765625 38.19140625 C59.07556519 44.79434723 59.04206483 51.39715771 59 58 C57.73236816 58.02054443 56.46473633 58.04108887 55.15869141 58.06225586 C54.4456485 58.0738121 53.73260559 58.08536835 52.99795532 58.09727478 C48.48689862 57.87764422 45.22000246 54.92889523 42 52 C36.69538179 45.374776 34.84836193 40.82254661 34.9375 32.375 C34.94201172 31.57320312 34.94652344 30.77140625 34.95117188 29.9453125 C34.96296832 27.96350994 34.98090395 25.98174567 35 24 C33.9378125 24.03480469 32.875625 24.06960937 31.78125 24.10546875 C14.59305614 24.50992075 14.59305614 24.50992075 7.25 17.875 C2.39167689 12.62756634 -0.11874188 7.13483844 0 0 Z " fill="#1C76F0" transform="translate(34,33)"/>
<path d="M0 0 C7.3973076 -0.04629419 14.79458407 -0.08185426 22.19200706 -0.10362434 C25.62675459 -0.1140717 29.06140317 -0.12824805 32.49609375 -0.15087891 C36.44269638 -0.17672063 40.38925863 -0.18646493 44.3359375 -0.1953125 C45.57242035 -0.20563507 46.8089032 -0.21595764 48.08285522 -0.22659302 C49.22388702 -0.22674408 50.36491882 -0.22689514 51.54052734 -0.22705078 C52.548685 -0.231492 53.55684265 -0.23593323 54.59555054 -0.24050903 C57 0 57 0 59 2 C59.24050903 4.3664856 59.24050903 4.3664856 59.22705078 7.36767578 C59.22689972 8.48868683 59.22674866 9.60969788 59.22659302 10.76467896 C59.21627045 11.97928802 59.20594788 13.19389709 59.1953125 14.4453125 C59.1924826 15.68546112 59.18965271 16.92560974 59.18673706 18.20333862 C59.17742174 21.50124633 59.1594489 24.79895972 59.1373291 28.09680176 C59.11687474 31.4616457 59.10773623 34.82651807 59.09765625 38.19140625 C59.07556519 44.79434723 59.04206483 51.39715771 59 58 C57.42226067 57.90029157 55.8455852 57.78367593 54.26953125 57.66015625 C53.39143799 57.59707275 52.51334473 57.53398926 51.60864258 57.46899414 C46.28481675 56.51185147 42.59335352 53.13636206 39.4296875 48.89453125 C35.75232848 43.12633096 34.86498308 39.24737226 34.9375 32.375 C34.94201172 31.57320312 34.94652344 30.77140625 34.95117188 29.9453125 C34.96296832 27.96350994 34.98090395 25.98174567 35 24 C33.2984375 24.06960937 33.2984375 24.06960937 31.5625 24.140625 C14.92871907 24.62757534 14.92871907 24.62757534 8.08203125 18.19921875 C2.94080024 12.73997345 -0.22239002 7.67899672 0 0 Z " fill="#2784FD" transform="translate(61,6)"/>
<path d="M0 0 C4.62 0 9.24 0 14 0 C14 3.96 14 7.92 14 12 C13.67 12 13.34 12 13 12 C13 10.02 13 8.04 13 6 C12.360625 5.731875 11.72125 5.46375 11.0625 5.1875 C9 4 9 4 8 1 C5.36 1 2.72 1 0 1 C0 0.67 0 0.34 0 0 Z " fill="#CCDFF6" transform="translate(55,57)"/>
</svg>
